<?xml version="1.0" encoding="utf-8"?>
<!-- Generator: Adobe Illustrator 15.1.0, SVG Export Plug-In . SVG Version: 6.00 Build 0)  -->
<!DOCTYPE svg PUBLIC "-//W3C//DTD SVG 1.1//EN" "http://www.w3.org/Graphics/SVG/1.1/DTD/svg11.dtd">
<svg version="1.1" id="Layer_1" xmlns="http://www.w3.org/2000/svg" xmlns:xlink="http://www.w3.org/1999/xlink" x="0px" y="0px"
	 width="612px" height="792px" viewBox="0 0 612 792" enable-background="new 0 0 612 792" xml:space="preserve">
<path fill-rule="evenodd" clip-rule="evenodd" stroke="#000000" stroke-width="2.9999" stroke-linecap="round" stroke-linejoin="round" stroke-miterlimit="22.9256" d="
	M197.053,715.815h32.662v-83.088h20.627v-57.303h10.601V332.177h4.297v-48.133h3.725v-32.089h4.584v-14.039h7.878v-10.028h10.601
	v-15.186h3.579v-57.726c0-3.563,1.733-6.739,4.398-8.729L306.5,36.5l6.495,109.747c2.664,1.99,4.397,5.167,4.397,8.729v57.726h3.579
	v15.186h10.602v10.028h7.878v14.039h4.584v32.089h3.725v48.133h4.298v243.248h10.601v57.303h20.628v83.088h32.662V756.5H197.053
	V715.815z"/>
</svg>
